<mxfile host="app.diagrams.net" agent="Mozilla/5.0 (Windows NT 10.0; Win64; x64) AppleWebKit/537.36 (KHTML, like Gecko) Chrome/140.0.0.0 Safari/537.36 Edg/140.0.0.0" version="28.2.2">
  <diagram name="Page-1" id="UvgZQlOGaJt908_lifOV">
    <mxGraphModel dx="1034" dy="570" grid="1" gridSize="10" guides="1" tooltips="1" connect="1" arrows="1" fold="1" page="1" pageScale="1" pageWidth="850" pageHeight="1100" math="0" shadow="0">
      <root>
        <mxCell id="0" />
        <mxCell id="1" parent="0" />
        <mxCell id="N-09ZK4I0lQw6LpExbx6-3" style="edgeStyle=orthogonalEdgeStyle;rounded=0;orthogonalLoop=1;jettySize=auto;html=1;entryX=0.5;entryY=0;entryDx=0;entryDy=0;" edge="1" parent="1" source="N-09ZK4I0lQw6LpExbx6-1" target="N-09ZK4I0lQw6LpExbx6-2">
          <mxGeometry relative="1" as="geometry" />
        </mxCell>
        <mxCell id="N-09ZK4I0lQw6LpExbx6-1" value="START" style="ellipse;whiteSpace=wrap;html=1;" vertex="1" parent="1">
          <mxGeometry x="350" y="60" width="100" height="40" as="geometry" />
        </mxCell>
        <mxCell id="N-09ZK4I0lQw6LpExbx6-5" value="" style="edgeStyle=orthogonalEdgeStyle;rounded=0;orthogonalLoop=1;jettySize=auto;html=1;" edge="1" parent="1" source="N-09ZK4I0lQw6LpExbx6-2" target="N-09ZK4I0lQw6LpExbx6-4">
          <mxGeometry relative="1" as="geometry" />
        </mxCell>
        <mxCell id="N-09ZK4I0lQw6LpExbx6-2" value="PENGUNJUNG DATANG" style="rounded=0;whiteSpace=wrap;html=1;" vertex="1" parent="1">
          <mxGeometry x="340" y="160" width="120" height="60" as="geometry" />
        </mxCell>
        <mxCell id="N-09ZK4I0lQw6LpExbx6-8" style="edgeStyle=orthogonalEdgeStyle;rounded=0;orthogonalLoop=1;jettySize=auto;html=1;entryX=0.5;entryY=0;entryDx=0;entryDy=0;" edge="1" parent="1" source="N-09ZK4I0lQw6LpExbx6-4" target="N-09ZK4I0lQw6LpExbx6-7">
          <mxGeometry relative="1" as="geometry" />
        </mxCell>
        <mxCell id="N-09ZK4I0lQw6LpExbx6-4" value="INPUT DATA PENGUNJUNG&lt;div&gt;tgl_masuk,nama_mhs,nim,keperluan&lt;/div&gt;" style="rounded=0;whiteSpace=wrap;html=1;" vertex="1" parent="1">
          <mxGeometry x="287.5" y="280" width="225" height="40" as="geometry" />
        </mxCell>
        <mxCell id="N-09ZK4I0lQw6LpExbx6-11" style="edgeStyle=orthogonalEdgeStyle;rounded=0;orthogonalLoop=1;jettySize=auto;html=1;exitX=0;exitY=1;exitDx=0;exitDy=0;entryX=0.5;entryY=0;entryDx=0;entryDy=0;" edge="1" parent="1" source="N-09ZK4I0lQw6LpExbx6-7" target="N-09ZK4I0lQw6LpExbx6-9">
          <mxGeometry relative="1" as="geometry" />
        </mxCell>
        <mxCell id="N-09ZK4I0lQw6LpExbx6-7" value="Validasi data" style="rhombus;whiteSpace=wrap;html=1;" vertex="1" parent="1">
          <mxGeometry x="310" y="370" width="180" height="80" as="geometry" />
        </mxCell>
        <mxCell id="N-09ZK4I0lQw6LpExbx6-9" value="INPUT BERHASIL" style="rounded=0;whiteSpace=wrap;html=1;" vertex="1" parent="1">
          <mxGeometry x="230" y="520" width="120" height="60" as="geometry" />
        </mxCell>
        <mxCell id="N-09ZK4I0lQw6LpExbx6-10" value="KEMBALI KE INPUT DATA" style="rounded=0;whiteSpace=wrap;html=1;" vertex="1" parent="1">
          <mxGeometry x="470" y="520" width="120" height="60" as="geometry" />
        </mxCell>
        <mxCell id="N-09ZK4I0lQw6LpExbx6-12" style="edgeStyle=orthogonalEdgeStyle;rounded=0;orthogonalLoop=1;jettySize=auto;html=1;exitX=1;exitY=1;exitDx=0;exitDy=0;entryX=0.427;entryY=-0.047;entryDx=0;entryDy=0;entryPerimeter=0;" edge="1" parent="1" source="N-09ZK4I0lQw6LpExbx6-7" target="N-09ZK4I0lQw6LpExbx6-10">
          <mxGeometry relative="1" as="geometry" />
        </mxCell>
        <mxCell id="N-09ZK4I0lQw6LpExbx6-13" value="Tidak" style="text;html=1;align=center;verticalAlign=middle;whiteSpace=wrap;rounded=0;" vertex="1" parent="1">
          <mxGeometry x="452.5" y="450" width="60" height="30" as="geometry" />
        </mxCell>
        <mxCell id="N-09ZK4I0lQw6LpExbx6-14" value="Iya" style="text;html=1;align=center;verticalAlign=middle;whiteSpace=wrap;rounded=0;" vertex="1" parent="1">
          <mxGeometry x="290" y="450" width="60" height="30" as="geometry" />
        </mxCell>
      </root>
    </mxGraphModel>
  </diagram>
</mxfile>
